<mxfile host="app.diagrams.net" agent="Mozilla/5.0 (Windows NT 10.0; Win64; x64) AppleWebKit/537.36 (KHTML, like Gecko) Chrome/134.0.0.0 Safari/537.36" version="26.1.1">
  <diagram name="Page-1" id="nG148OseQGQMVHHeUDSL">
    <mxGraphModel dx="3289" dy="943" grid="1" gridSize="10" guides="1" tooltips="1" connect="1" arrows="1" fold="1" page="1" pageScale="1" pageWidth="827" pageHeight="1169" background="none" math="0" shadow="0">
      <root>
        <mxCell id="0" />
        <mxCell id="1" parent="0" />
        <mxCell id="WJ9uTTHWhe-2Dk32s_hX-100" value="" style="edgeStyle=orthogonalEdgeStyle;rounded=0;orthogonalLoop=1;jettySize=auto;html=1;" edge="1" parent="1" source="iuNYv7vW9VpHZuQ5Ev_B-2" target="iuNYv7vW9VpHZuQ5Ev_B-3">
          <mxGeometry relative="1" as="geometry" />
        </mxCell>
        <mxCell id="iuNYv7vW9VpHZuQ5Ev_B-2" value="" style="ellipse;whiteSpace=wrap;html=1;aspect=fixed;strokeColor=#00994D;fillColor=#00994D;" parent="1" vertex="1">
          <mxGeometry x="360" y="80" width="40" height="40" as="geometry" />
        </mxCell>
        <mxCell id="WJ9uTTHWhe-2Dk32s_hX-101" style="edgeStyle=orthogonalEdgeStyle;rounded=0;orthogonalLoop=1;jettySize=auto;html=1;" edge="1" parent="1" source="iuNYv7vW9VpHZuQ5Ev_B-3" target="WJ9uTTHWhe-2Dk32s_hX-97">
          <mxGeometry relative="1" as="geometry" />
        </mxCell>
        <mxCell id="WJ9uTTHWhe-2Dk32s_hX-115" style="edgeStyle=orthogonalEdgeStyle;rounded=0;orthogonalLoop=1;jettySize=auto;html=1;entryX=0.5;entryY=0;entryDx=0;entryDy=0;" edge="1" parent="1" source="iuNYv7vW9VpHZuQ5Ev_B-3" target="WJ9uTTHWhe-2Dk32s_hX-114">
          <mxGeometry relative="1" as="geometry" />
        </mxCell>
        <mxCell id="WJ9uTTHWhe-2Dk32s_hX-116" style="edgeStyle=orthogonalEdgeStyle;rounded=0;orthogonalLoop=1;jettySize=auto;html=1;entryX=0.5;entryY=0;entryDx=0;entryDy=0;" edge="1" parent="1" source="iuNYv7vW9VpHZuQ5Ev_B-3" target="WJ9uTTHWhe-2Dk32s_hX-113">
          <mxGeometry relative="1" as="geometry" />
        </mxCell>
        <mxCell id="WJ9uTTHWhe-2Dk32s_hX-117" style="edgeStyle=orthogonalEdgeStyle;rounded=0;orthogonalLoop=1;jettySize=auto;html=1;entryX=0.5;entryY=0;entryDx=0;entryDy=0;" edge="1" parent="1" source="iuNYv7vW9VpHZuQ5Ev_B-3" target="WJ9uTTHWhe-2Dk32s_hX-112">
          <mxGeometry relative="1" as="geometry" />
        </mxCell>
        <mxCell id="WJ9uTTHWhe-2Dk32s_hX-118" style="edgeStyle=orthogonalEdgeStyle;rounded=0;orthogonalLoop=1;jettySize=auto;html=1;entryX=0.5;entryY=0;entryDx=0;entryDy=0;" edge="1" parent="1" source="iuNYv7vW9VpHZuQ5Ev_B-3" target="WJ9uTTHWhe-2Dk32s_hX-111">
          <mxGeometry relative="1" as="geometry" />
        </mxCell>
        <mxCell id="iuNYv7vW9VpHZuQ5Ev_B-3" value="" style="rhombus;whiteSpace=wrap;html=1;strokeColor=#CC0000;fillColor=#CC0000;" parent="1" vertex="1">
          <mxGeometry x="360" y="160" width="40" height="40" as="geometry" />
        </mxCell>
        <mxCell id="iuNYv7vW9VpHZuQ5Ev_B-5" value="Pirmā apmeklēšana" style="text;html=1;align=center;verticalAlign=middle;resizable=0;points=[];autosize=1;strokeColor=none;fillColor=none;" parent="1" vertex="1">
          <mxGeometry x="280" y="50" width="130" height="30" as="geometry" />
        </mxCell>
        <mxCell id="WJ9uTTHWhe-2Dk32s_hX-102" style="edgeStyle=orthogonalEdgeStyle;rounded=0;orthogonalLoop=1;jettySize=auto;html=1;entryX=0.5;entryY=1;entryDx=0;entryDy=0;" edge="1" parent="1" source="WJ9uTTHWhe-2Dk32s_hX-97" target="WJ9uTTHWhe-2Dk32s_hX-98">
          <mxGeometry relative="1" as="geometry">
            <Array as="points">
              <mxPoint x="520" y="130" />
              <mxPoint x="470" y="130" />
            </Array>
          </mxGeometry>
        </mxCell>
        <mxCell id="WJ9uTTHWhe-2Dk32s_hX-109" value="&lt;font style=&quot;font-size: 10px;&quot;&gt;Nē&lt;/font&gt;" style="edgeLabel;html=1;align=center;verticalAlign=middle;resizable=0;points=[];" vertex="1" connectable="0" parent="WJ9uTTHWhe-2Dk32s_hX-102">
          <mxGeometry x="0.4707" y="-1" relative="1" as="geometry">
            <mxPoint as="offset" />
          </mxGeometry>
        </mxCell>
        <mxCell id="WJ9uTTHWhe-2Dk32s_hX-103" style="edgeStyle=orthogonalEdgeStyle;rounded=0;orthogonalLoop=1;jettySize=auto;html=1;entryX=0.5;entryY=1;entryDx=0;entryDy=0;" edge="1" parent="1" source="WJ9uTTHWhe-2Dk32s_hX-97" target="WJ9uTTHWhe-2Dk32s_hX-99">
          <mxGeometry relative="1" as="geometry">
            <Array as="points">
              <mxPoint x="520" y="130" />
              <mxPoint x="630" y="130" />
            </Array>
          </mxGeometry>
        </mxCell>
        <mxCell id="WJ9uTTHWhe-2Dk32s_hX-110" value="&lt;font style=&quot;font-size: 10px;&quot;&gt;Jā&lt;/font&gt;" style="edgeLabel;html=1;align=center;verticalAlign=middle;resizable=0;points=[];" vertex="1" connectable="0" parent="WJ9uTTHWhe-2Dk32s_hX-103">
          <mxGeometry x="0.3352" y="-1" relative="1" as="geometry">
            <mxPoint as="offset" />
          </mxGeometry>
        </mxCell>
        <mxCell id="WJ9uTTHWhe-2Dk32s_hX-97" value="" style="rhombus;whiteSpace=wrap;html=1;strokeColor=#CC0000;fillColor=#CC0000;" vertex="1" parent="1">
          <mxGeometry x="500" y="160" width="40" height="40" as="geometry" />
        </mxCell>
        <mxCell id="WJ9uTTHWhe-2Dk32s_hX-120" style="edgeStyle=orthogonalEdgeStyle;rounded=0;orthogonalLoop=1;jettySize=auto;html=1;entryX=0.5;entryY=1;entryDx=0;entryDy=0;" edge="1" parent="1" target="iuNYv7vW9VpHZuQ5Ev_B-3">
          <mxGeometry relative="1" as="geometry">
            <mxPoint x="420" y="220" as="sourcePoint" />
            <Array as="points">
              <mxPoint x="470" y="220" />
              <mxPoint x="730" y="220" />
              <mxPoint x="730" y="10" />
              <mxPoint x="420" y="10" />
              <mxPoint x="420" y="220" />
              <mxPoint x="380" y="220" />
            </Array>
          </mxGeometry>
        </mxCell>
        <mxCell id="WJ9uTTHWhe-2Dk32s_hX-98" value="&lt;font style=&quot;font-size: 10px;&quot;&gt;Reģistrēties&lt;/font&gt;" style="rounded=1;whiteSpace=wrap;html=1;" vertex="1" parent="1">
          <mxGeometry x="430" y="85" width="80" height="30" as="geometry" />
        </mxCell>
        <mxCell id="WJ9uTTHWhe-2Dk32s_hX-106" style="edgeStyle=orthogonalEdgeStyle;rounded=0;orthogonalLoop=1;jettySize=auto;html=1;endArrow=none;startFill=0;" edge="1" parent="1" source="WJ9uTTHWhe-2Dk32s_hX-99">
          <mxGeometry relative="1" as="geometry">
            <mxPoint x="590" y="10" as="targetPoint" />
            <Array as="points">
              <mxPoint x="630" y="10" />
            </Array>
          </mxGeometry>
        </mxCell>
        <mxCell id="WJ9uTTHWhe-2Dk32s_hX-99" value="&lt;font style=&quot;font-size: 10px;&quot;&gt;Autorizēties&lt;/font&gt;" style="rounded=1;whiteSpace=wrap;html=1;" vertex="1" parent="1">
          <mxGeometry x="590" y="85" width="80" height="30" as="geometry" />
        </mxCell>
        <mxCell id="WJ9uTTHWhe-2Dk32s_hX-108" value="&lt;font style=&quot;font-size: 10px;&quot;&gt;Ir konts?&lt;/font&gt;" style="text;html=1;align=center;verticalAlign=middle;resizable=0;points=[];autosize=1;strokeColor=none;fillColor=none;" vertex="1" parent="1">
          <mxGeometry x="510" y="140" width="60" height="30" as="geometry" />
        </mxCell>
        <mxCell id="WJ9uTTHWhe-2Dk32s_hX-111" value="&lt;font style=&quot;font-size: 10px;&quot;&gt;Apskatīt atsauksmes&lt;/font&gt;" style="rounded=1;whiteSpace=wrap;html=1;" vertex="1" parent="1">
          <mxGeometry x="-90" y="210" width="80" height="30" as="geometry" />
        </mxCell>
        <mxCell id="WJ9uTTHWhe-2Dk32s_hX-112" value="&lt;font style=&quot;font-size: 10px;&quot;&gt;Apskatīt izejmateriālus&lt;/font&gt;" style="rounded=1;whiteSpace=wrap;html=1;" vertex="1" parent="1">
          <mxGeometry x="10" y="210" width="80" height="30" as="geometry" />
        </mxCell>
        <mxCell id="WJ9uTTHWhe-2Dk32s_hX-113" value="&lt;font style=&quot;font-size: 10px;&quot;&gt;Apsaktīt produkciju&amp;nbsp;&lt;/font&gt;" style="rounded=1;whiteSpace=wrap;html=1;" vertex="1" parent="1">
          <mxGeometry x="110" y="210" width="80" height="30" as="geometry" />
        </mxCell>
        <mxCell id="WJ9uTTHWhe-2Dk32s_hX-119" style="edgeStyle=orthogonalEdgeStyle;rounded=0;orthogonalLoop=1;jettySize=auto;html=1;" edge="1" parent="1" source="WJ9uTTHWhe-2Dk32s_hX-114">
          <mxGeometry relative="1" as="geometry">
            <mxPoint x="520" y="200" as="targetPoint" />
            <Array as="points">
              <mxPoint x="250" y="250" />
              <mxPoint x="520" y="250" />
            </Array>
          </mxGeometry>
        </mxCell>
        <mxCell id="WJ9uTTHWhe-2Dk32s_hX-114" value="&lt;font style=&quot;font-size: 10px;&quot;&gt;Apskatīt grozu&lt;/font&gt;" style="rounded=1;whiteSpace=wrap;html=1;" vertex="1" parent="1">
          <mxGeometry x="210" y="210" width="80" height="30" as="geometry" />
        </mxCell>
      </root>
    </mxGraphModel>
  </diagram>
</mxfile>
